<?xml version="1.0" encoding="UTF-8"?>
<svg id="Layer_2" data-name="Layer 2" xmlns="http://www.w3.org/2000/svg" viewBox="0 0 289.03 125.22">
  <defs>
    <style>
      .cls-1 {
        fill: #fff;
        stroke-width: 0px;
      }
    </style>
  </defs>
  <g id="Layer_1-2" data-name="Layer 1">
    <g id="Artwork_5" data-name="Artwork 5">
      <g>
        <g>
          <path class="cls-1" d="m109.44,48.25c-.01-.13-.03-.24-.05-.36.02.06.02.14.04.21,0,.05.01.1.01.15Z"/>
          <polygon class="cls-1" points="14.38 68.67 14.38 68.67 4.35 76.39 14.38 68.67"/>
          <g>
            <path class="cls-1" d="m78.13,23.8c-3.23,2.48-7.52,3.08-11.3,1.57-10.14-4.06-22.1-2.82-31.35,4.3l-22.61,17.4L.03,56.93C-.57,39.79,6.81,22.62,21.41,11.39,37.32-.85,57.84-3.02,75.26,3.9c.08.03.17.06.25.1,8.23,3.31,9.64,14.39,2.62,19.8Z"/>
            <path class="cls-1" d="m88.45,98.48c-24.02,18.49-58.58,13.98-77.06-10.03-2.91-3.79-5.26-7.85-7.04-12.06l10.04-7.72h0s.47-.36.47-.36c0,0,0,0,.02-.02l9.13-7.03.18-.13,22.31-17.17c6.23-4.79,15.25-3.46,19.8,3.06,2.06,2.96,2.76,6.46,2.25,9.79-.52,3.58-2.42,6.98-5.47,9.33l-22.45,17.28c10.58,5.31,23.75,4.47,33.76-3.22,9.26-7.12,13.52-18.36,12.18-29.19-.13-.97-.12-1.93,0-2.87.39-3,1.95-5.75,4.4-7.64,6.96-5.36,17.21-1.27,18.42,7.39.02.12.04.23.05.36,0,.05,0,.1.01.15,2.22,18.6-5.13,37.86-21.01,50.08Z"/>
          </g>
          <path class="cls-1" d="m122.52,11.61v5.95c0,.88-.71,1.59-1.59,1.59h-8.44v8.44c0,.88-.71,1.59-1.59,1.59h-6.4c-.87,0-1.58-.71-1.58-1.59v-8.44h-7.99c-.87,0-1.58-.71-1.58-1.59v-5.95c0-.87.71-1.58,1.58-1.58h7.99V1.58C102.91.71,103.62,0,104.49,0h6.4C111.78,0,112.49.71,112.49,1.58v8.47s0-.02.02-.02h8.42c.88,0,1.59.71,1.59,1.58Z"/>
        </g>
        <g>
          <g>
            <path class="cls-1" d="m149.51,98.38c-2,1.04-4.2,1.48-6.47,1.48-4.81,0-8.32-3.16-8.32-8.1s3.51-8.1,8.32-8.1c2.44,0,4.59.54,6.14,1.98l-2.4,2.61c-.92-.96-2.03-1.46-3.75-1.46-2.89,0-4.79,2.09-4.79,4.96s1.89,4.96,4.79,4.96c1.48,0,2.57-.41,3.2-.76v-2.5h-2.77v-3.14h6.03v8.06Z"/>
            <path class="cls-1" d="m152.2,83.01h3.27v16.46h-3.27v-16.46Z"/>
            <path class="cls-1" d="m163.32,88.63c3.27,0,5.88,2.18,5.88,5.55s-2.61,5.55-5.88,5.55-5.88-2.18-5.88-5.55,2.61-5.55,5.88-5.55Zm0,8.23c1.63,0,2.61-1.09,2.61-2.68s-.98-2.68-2.61-2.68-2.61,1.09-2.61,2.68.98,2.68,2.61,2.68Z"/>
            <path class="cls-1" d="m171.32,83.01h3.27v7.01h.04c.74-1.02,2-1.39,3.35-1.39,3,0,4.83,2.7,4.83,5.64,0,3.2-2.07,5.46-5.2,5.46-1.48,0-2.74-.89-3.24-1.65h-.04v1.39h-3v-16.46Zm5.62,13.85c1.63,0,2.61-1.09,2.61-2.68s-.98-2.68-2.61-2.68-2.61,1.09-2.61,2.68.98,2.68,2.61,2.68Z"/>
            <path class="cls-1" d="m191.3,98.15h-.04c-.72,1.13-2.02,1.59-3.35,1.59-1.98,0-3.77-1.13-3.77-3.27,0-3.66,4.44-3.72,7.16-3.72,0-1.15-.96-1.89-2.09-1.89-1.07,0-1.96.48-2.66,1.26l-1.74-1.79c1.2-1.13,2.94-1.7,4.66-1.7,3.81,0,4.83,1.94,4.83,5.46v5.38h-3v-1.33Zm-.81-3.31c-1,0-3.22.09-3.22,1.52,0,.78.83,1.15,1.55,1.15,1.28,0,2.48-.68,2.48-1.98v-.7h-.81Z"/>
            <path class="cls-1" d="m196.64,83.01h3.27v16.46h-3.27v-16.46Z"/>
            <path class="cls-1" d="m209.12,84.06h5.1c4.96,0,9.12,2.11,9.12,7.75,0,4.99-4.07,7.66-8.67,7.66h-5.55v-15.41Zm3.4,12.28h1.76c3.16,0,5.53-1.2,5.53-4.7,0-3.03-2.42-4.44-5.29-4.44h-2v9.14Z"/>
            <path class="cls-1" d="m230.63,88.63c3.27,0,5.88,2.18,5.88,5.55s-2.61,5.55-5.88,5.55-5.88-2.18-5.88-5.55,2.61-5.55,5.88-5.55Zm0,8.23c1.63,0,2.61-1.09,2.61-2.68s-.98-2.68-2.61-2.68-2.61,1.09-2.61,2.68.98,2.68,2.61,2.68Z"/>
            <path class="cls-1" d="m245.48,92.31c-.33-.46-.94-.81-1.61-.81-1.63,0-2.61,1.09-2.61,2.68s.98,2.68,2.61,2.68c.72,0,1.24-.37,1.61-.81l2.16,2.26c-1.02,1.04-2.53,1.41-3.77,1.41-3.27,0-5.88-2.18-5.88-5.55s2.61-5.55,5.88-5.55c1.24,0,2.74.37,3.77,1.42l-2.16,2.26Z"/>
            <path class="cls-1" d="m256.64,91.5h-2.87v3.53c0,1.13.13,1.96,1.55,1.96.35,0,1.05-.04,1.33-.3v2.72c-.72.26-1.52.33-2.29.33-2.18,0-3.85-.89-3.85-3.2v-5.03h-2.09v-2.61h2.09v-3.14h3.27v3.14h2.87v2.61Z"/>
            <path class="cls-1" d="m263.77,88.63c3.27,0,5.88,2.18,5.88,5.55s-2.61,5.55-5.88,5.55-5.88-2.18-5.88-5.55,2.61-5.55,5.88-5.55Zm0,8.23c1.63,0,2.61-1.09,2.61-2.68s-.98-2.68-2.61-2.68-2.61,1.09-2.61,2.68.98,2.68,2.61,2.68Z"/>
            <path class="cls-1" d="m271.61,88.89h3.27v1.7h.04c.7-1.28,1.61-1.96,3.05-1.96.37,0,.78.02,1.09.11v2.98c-.46-.13-.91-.22-1.39-.22-2.48,0-2.79,1.44-2.79,3.55v4.42h-3.27v-10.58Z"/>
            <path class="cls-1" d="m286.62,92.01c-.48-.59-1.11-.89-1.89-.89-.54,0-1.2.24-1.2.87,0,1.57,5.51.24,5.51,4.27,0,2.7-2.61,3.48-4.88,3.48-1.48,0-3.11-.37-4.16-1.44l1.98-2.2c.61.74,1.33,1.15,2.31,1.15.74,0,1.48-.2,1.48-.76,0-1.7-5.51-.26-5.51-4.29,0-2.48,2.22-3.57,4.44-3.57,1.39,0,2.94.35,3.92,1.39l-2,1.98Z"/>
          </g>
          <g>
            <path class="cls-1" d="m135.55,32.48h26.84c.69,0,1.26.56,1.26,1.26v6.54c0,.69-.56,1.26-1.26,1.26h-17.32c-.69,0-1.26.56-1.26,1.26v5.79c0,.69.56,1.26,1.26,1.26h16.22c.69,0,1.26.56,1.26,1.26v6.54c0,.69-.56,1.26-1.26,1.26h-16.22c-.69,0-1.26.56-1.26,1.26v6.54c0,.69.56,1.26,1.26,1.26h18.42c.69,0,1.26.56,1.26,1.26v6.54c0,.69-.56,1.26-1.26,1.26h-27.94c-.69,0-1.26-.56-1.26-1.26v-42.03c0-.69.56-1.26,1.26-1.26Z"/>
            <path class="cls-1" d="m171.32,32.48h7.01c.69,0,1.26.56,1.26,1.26v32.97c0,.69.56,1.26,1.26,1.26h15.12c.69,0,1.26.56,1.26,1.26v6.54c0,.69-.56,1.26-1.26,1.26h-24.65c-.69,0-1.26-.56-1.26-1.26v-42.03c0-.69.56-1.26,1.26-1.26Z"/>
            <path class="cls-1" d="m203.61,32.48h7.01c.69,0,1.26.56,1.26,1.26v42.03c0,.69-.56,1.26-1.26,1.26h-7.01c-.69,0-1.26-.56-1.26-1.26v-42.03c0-.69.56-1.26,1.26-1.26Z"/>
            <path class="cls-1" d="m228.75,41.16h-9.81c-.69,0-1.26-.56-1.26-1.26v-6.17c0-.69.56-1.26,1.26-1.26h31.66c.69,0,1.26.56,1.26,1.26v6.17c0,.69-.56,1.26-1.26,1.26h-9.81c-.69,0-1.26.56-1.26,1.26v33.34c0,.69-.56,1.26-1.26,1.26h-7.01c-.69,0-1.26-.56-1.26-1.26v-33.34c0-.69-.56-1.26-1.26-1.26Z"/>
            <path class="cls-1" d="m259.41,32.48h26.84c.69,0,1.26.56,1.26,1.26v6.54c0,.69-.56,1.26-1.26,1.26h-17.32c-.69,0-1.26.56-1.26,1.26v5.79c0,.69.56,1.26,1.26,1.26h16.22c.69,0,1.26.56,1.26,1.26v6.54c0,.69-.56,1.26-1.26,1.26h-16.22c-.69,0-1.26.56-1.26,1.26v6.54c0,.69.56,1.26,1.26,1.26h18.42c.69,0,1.26.56,1.26,1.26v6.54c0,.69-.56,1.26-1.26,1.26h-27.94c-.69,0-1.26-.56-1.26-1.26v-42.03c0-.69.56-1.26,1.26-1.26Z"/>
          </g>
        </g>
        <g>
          <g>
            <path class="cls-1" d="m251.13,120.34c.51,0,.93.15,1.26.46.33.31.49.73.49,1.26s-.17.99-.51,1.31c-.34.32-.79.49-1.35.49-.52,0-.99-.11-1.41-.32v-4.39c.15-.02.29-.04.4-.04.12,0,.25.01.39.04v1.35c.22-.1.46-.15.72-.15Zm-.07,2.82c.32,0,.57-.1.75-.29.18-.19.27-.45.27-.78,0-.31-.09-.56-.27-.75-.18-.19-.43-.29-.74-.29-.26,0-.48.05-.67.15v1.84c.21.08.42.12.65.12Z"/>
            <path class="cls-1" d="m256.1,120.42c.17,0,.34.03.5.08-.21,1.06-.51,1.96-.9,2.7-.39.74-.92,1.41-1.59,2.02-.24-.07-.41-.24-.5-.52.42-.4.71-.75.9-1.03-.56-.91-.99-1.97-1.28-3.18.14-.05.32-.07.55-.07.07,0,.18,0,.32.03.19.87.46,1.69.83,2.47.03.07.05.11.06.14,0-.01.01-.04.02-.07.01-.03.02-.06.03-.07.3-.62.55-1.44.76-2.47.13-.02.24-.03.32-.03Z"/>
          </g>
          <path class="cls-1" d="m261.58,115.28c0,.11.07.21.18.25.11.04.22,0,.29-.09.48-.69,1.15-.91,2.32-.91,1.96,0,3,.94,3,2.71v6.55h-2.98v-5.43c0-.63-.02-.82-.16-1.04-.18-.31-.51-.45-1.04-.45-1.14,0-1.63.51-1.63,1.69v5.24h-2.98v-13.08h2.98s0,2.89.02,4.58m15.33.72c-.51-1.08-1.66-1.47-4.23-1.47-2.14,0-3.04.23-3.61.89-.33.43-.45.8-.47,1.91h3c.06-.83.29-.99,1.18-.99,1.02,0,1.39.32,1.39,1.2,0,0,0,.45,0,.9,0,.11-.07.21-.17.26-.1.04-.22.02-.3-.05-.39-.36-1.03-.45-2.2-.45-2.32,0-3.28.8-3.28,2.79,0,2.14.84,2.9,3.2,2.9,1.47,0,2.12-.27,2.54-1.1.02-.04.07-.06.12-.05.05.01.08.05.08.1,0,0,0-.03,0-.03,0,.52.43.91.95.91h2.15v-5.87c0-.63-.2-1.51-.37-1.84m-4.06,5.94c-1.31,0-1.61-.18-1.61-1,0-.71.35-.94,1.39-.94,1.2,0,1.53.2,1.53.88,0,.82-.27,1.06-1.31,1.06m13.86-4.69c-.02-2.14-.88-2.73-4.08-2.73-1.84,0-2.81.14-3.43.53-.65.39-.98,1.2-.98,2.33,0,1.43.45,2.2,1.55,2.55.65.22,1.35.27,3.18.29,1.02.02,1.3.2,1.3.9,0,.65-.31.8-1.57.8s-1.45-.14-1.45-.86v-.16h-3.04c.02.9.1,1.31.35,1.76.53.88,1.57,1.2,3.94,1.2,2.04,0,2.96-.2,3.71-.8.63-.51.94-1.27.94-2.33,0-1-.29-1.73-.86-2.12-.53-.35-1.14-.49-2.88-.57q-1.67-.08-1.82-.12c-.31-.08-.47-.31-.47-.71,0-.25.12-.53.29-.63.18-.12.37-.14,1.08-.14,1.06,0,1.26.1,1.39.65l.04.14h2.83Z"/>
        </g>
      </g>
    </g>
  </g>
</svg>